<svg xmlns="http://www.w3.org/2000/svg" xmlns:xlink="http://www.w3.org/1999/xlink" version="1.1" x="0px" y="0px" viewBox="0 0 160 200" style="enable-background:new 0 0 160 160;" xml:space="preserve"><g><path d="M140.8,36.4C140.8,36.4,140.8,36.4,140.8,36.4c-3.9-5.4-8.5-10.3-13.7-14.5c-0.2-0.1-0.3-0.3-0.5-0.4   C113.3,10.9,96.6,5,79.5,5c-31.7,0-60,20.1-70.4,50c-1.4,4-2.5,8.2-3.2,12.5C5.3,71.6,5,75.8,5,80c0.1,18.5,7,36.2,19.4,50   c0.1,0.1,0.1,0.2,0.2,0.2C38.9,146,59.2,155,80.5,155c12.2,0,24.2-3,34.9-8.6c6.5-3.4,12.4-7.8,17.6-12.9   c14.4-14.2,22.2-33.2,22.1-53.5C154.9,64.2,150,49.2,140.8,36.4z M20.3,48.1l37.5,0c0.8,1.6,1.8,3,3,4.4l-42.6,0   C18.9,51,19.6,49.6,20.3,48.1z M28.4,36.3l27.2,0c-0.1,0.7-0.1,1.5-0.1,2.2c0,0.7,0,1.5,0.1,2.2l-30.6,0   C26.1,39.1,27.2,37.7,28.4,36.3z M41.5,24.4l19.2,0c-1.2,1.3-2.1,2.8-2.9,4.4l-21.9,0C37.6,27.2,39.5,25.7,41.5,24.4z M75.7,28.8   v7.5l15.2,0c0.1,0.7,0.2,1.5,0.2,2.2c0,0.7-0.1,1.5-0.2,2.2l-15.1,0v7.5l11.5,0c-0.1,0.1-0.2,0.2-0.3,0.3c-2.6,2.6-6.1,4.1-9.9,4.1   c-7.8,0-14.1-6.3-14.2-14.1c0-3.8,1.4-7.3,4.1-10c2.6-2.6,6.1-4.1,9.9-4.1c4,0,7.6,1.7,10.2,4.4L75.7,28.8z M85.7,119.4   c-0.4,0.7-0.8,1.4-1.4,2c-1.5,1.5-3.5,2.4-5.7,2.4c-4.5,0-8.2-3.7-8.2-8.1c0-2.2,0.8-4.2,2.3-5.7c1.5-1.5,3.5-2.4,5.7-2.4   c3.1,0,5.8,1.8,7.2,4.4h-7.9v7.5H85.7z M63.3,111.9l-42.5,0c-0.8-1.4-1.5-2.9-2.2-4.4l46.5,0C64.3,108.9,63.7,110.3,63.3,111.9z    M63.3,119.4c0.4,1.6,1,3,1.9,4.4l-36.2,0c-1.2-1.4-2.4-2.9-3.5-4.4L63.3,119.4z M56.6,143.1l20.3,0v-7.5l-34.6,0   c-2-1.4-3.9-2.8-5.7-4.4l40.3,0v-0.1c0.6,0.1,1.2,0.1,1.8,0.1c4.2,0,8.1-1.6,11-4.6c3-3,4.6-6.9,4.5-11.1C94.1,107,87,100,78.4,100   c-0.6,0-1.2,0-1.8,0.1V100l-60.9,0c-0.5-1.4-0.9-2.9-1.2-4.4l62.1,0v-7.5l-63.4,0c-0.2-1.5-0.3-2.9-0.4-4.4l63.8,0v-7.5l-63.8,0   c0.1-1.5,0.2-2.9,0.4-4.4l63.4,0v-7.5l-62.1,0c0.3-1.5,0.7-2.9,1.2-4.4l60.9,0v0c0.3,0,0.6,0,0.9,0c5.8,0,11.2-2.2,15.2-6.3   c4.1-4.1,6.3-9.5,6.3-15.3c-0.1-11.9-9.8-21.5-21.7-21.5c-0.3,0-0.6,0-0.9,0v0l-20.2,0c7.4-2.8,15.4-4.4,23.7-4.4   c14,0,27.7,4.4,39.1,12.4c-1.5,2.2-2.3,4.8-2.3,7.6c0,7.5,6.2,13.6,13.7,13.6c2.5,0,4.9-0.7,6.9-1.9c6.8,10.7,10.5,23,10.6,35.8   c0,0,0,0,0,0c0.1,16.9-5.9,32.8-17.1,45.2c-2.5-2.1-5.8-3.4-9.2-3.4c-7.8,0-14.2,6.3-14.2,14.2c0,1.9,0.4,3.8,1.1,5.5   c-8.6,3.9-18.1,6-27.7,6C72.2,147.5,64.1,146,56.6,143.1z M124.6,29.7c0.1,0.1,0.3,0.2,0.4,0.4c1.2,1,2.3,2.1,3.4,3.3   c0.2,0.3,0.5,0.5,0.7,0.8c1.1,1.2,2.1,2.3,3.1,3.6c0.1,0.1,0.2,0.3,0.3,0.4c-0.8,0.4-1.6,0.6-2.5,0.6c-3.4,0-6.1-2.7-6.1-6.1   C123.9,31.5,124.1,30.5,124.6,29.7z M124.3,131.2c-0.3,0.2-0.5,0.4-0.8,0.7c-2.2,1.9-4.6,3.6-7,5.2c-0.3,0.2-0.6,0.4-0.9,0.5   c-0.3,0.2-0.5,0.3-0.8,0.5c-0.2-0.6-0.3-1.3-0.3-2c0-3.7,3-6.7,6.7-6.7c1.4,0,2.7,0.4,3.8,1.2C124.8,130.8,124.5,131,124.3,131.2z    M26.6,32.5L26.6,32.5L26.6,32.5z M18.1,44.4L18.1,44.4L18.1,44.4z"/><path d="M128.2,92.8C132,89,134,84,134,78.6c-0.1-11-9.1-19.9-20.1-19.9c-5.3,0-10.3,2.1-14.1,5.8c-3.8,3.8-5.8,8.8-5.8,14.2   c0.1,11,9.1,19.9,20.1,19.9C119.5,98.6,124.5,96.5,128.2,92.8z M126.3,77c0.1,0.6,0.1,1.1,0.1,1.7c0,0.6,0,1.1-0.1,1.6h-12.7v7.5   h8.9c-2.3,2.1-5.2,3.3-8.4,3.3c-6.9,0-12.5-5.6-12.6-12.5c0-3.3,1.3-6.5,3.6-8.8c2.3-2.3,5.4-3.6,8.7-3.6c3.3,0,6.2,1.3,8.5,3.3   l-8.8,0V77L126.3,77z"/></g><text x="0" y="175" fill="#000000" font-size="5px" font-weight="bold" font-family="'Helvetica Neue', Helvetica, Arial-Unicode, Arial, Sans-serif">Created by Symbolon</text><text x="0" y="180" fill="#000000" font-size="5px" font-weight="bold" font-family="'Helvetica Neue', Helvetica, Arial-Unicode, Arial, Sans-serif">from the Noun Project</text></svg>