<svg xmlns="http://www.w3.org/2000/svg" version="1.1" viewBox="-5.0 -10.0 110.0 135.0">
 <path d="m60.887 58.094c0.625 0.59375 0.65234 1.582 0.0625 2.207-2.8477 3.0117-6.8047 4.7188-10.949 4.7305-0.86328 0-1.5625-0.69922-1.5625-1.5625s0.69922-1.5625 1.5625-1.5625c3.2891 0.007812 6.4297-1.3477 8.6758-3.75 0.59375-0.625 1.582-0.65625 2.2109-0.0625zm2.582-9.6562c-0.86328 0-1.5625 0.69922-1.5625 1.5625-0.003906 1.4258-0.26562 2.8359-0.76953 4.168-0.16797 0.39453-0.16016 0.84375 0.011719 1.2383 0.17187 0.39062 0.5 0.69922 0.90234 0.84375 0.17969 0.0625 0.36719 0.09375 0.55469 0.09375 0.65625-0.007812 1.2344-0.42578 1.457-1.043 0.64453-1.6953 0.97266-3.4961 0.96875-5.3125-0.003906-0.85938-0.70312-1.5508-1.5625-1.5508zm28.762 1.5625c0 0.75781-0.54688 1.4102-1.293 1.543l-20.105 3.6016c-0.51172 2.1055-1.3438 4.1172-2.4688 5.9688l11.68 16.75c0.4375 0.62109 0.36328 1.4688-0.17578 2.0039-0.53516 0.53906-1.3828 0.61328-2.0039 0.17578l-16.75-11.656c-1.8516 1.1133-3.8633 1.9375-5.9688 2.4453l-3.6016 20.105c0 0.86328-0.69922 1.5625-1.5625 1.5625s-1.5625-0.69922-1.5625-1.5625l-3.5625-20.105c-2.1055-0.51172-4.1172-1.3438-5.9688-2.4688l-16.75 11.68c-0.62109 0.4375-1.4688 0.36328-2.0039-0.17578-0.53906-0.53516-0.61328-1.3828-0.17578-2.0039l11.656-16.75c-1.1133-1.8516-1.9375-3.8633-2.4453-5.9688l-20.105-3.6016c-0.86328 0-1.5625-0.69922-1.5625-1.5625s0.69922-1.5625 1.5625-1.5625l20.105-3.5625c0.51172-2.1055 1.3438-4.1172 2.4688-5.9688l-11.68-16.75c-0.4375-0.62109-0.36328-1.4688 0.17578-2.0039 0.53516-0.53906 1.3828-0.61328 2.0039-0.17578l16.75 11.656c1.8516-1.1133 3.8633-1.9375 5.9688-2.4453l3.6016-20.105c0-0.86328 0.69922-1.5625 1.5625-1.5625s1.5625 0.69922 1.5625 1.5625l3.5625 20.105c2.1055 0.51172 4.1172 1.3438 5.9688 2.4688l16.75-11.68c0.62109-0.4375 1.4688-0.36328 2.0039 0.17578 0.53906 0.53516 0.61328 1.3828 0.17578 2.0039l-11.656 16.75c1.1133 1.8516 1.9375 3.8633 2.4453 5.9688l20.105 3.6016c0.74609 0.13281 1.293 0.78516 1.293 1.543zm-10.418 0-12.5-2.25c-0.63672-0.10938-1.1328-0.60547-1.25-1.2383-0.46484-2.4297-1.418-4.7422-2.8008-6.793-0.37109-0.52734-0.37109-1.2305 0-1.7617l7.293-10.418-10.418 7.293c-0.53125 0.37109-1.2344 0.37109-1.7617 0-2.0508-1.3828-4.3633-2.3359-6.793-2.8008-0.63281-0.11719-1.1289-0.61328-1.2383-1.25l-2.3438-12.605-2.25 12.555c-0.10938 0.63281-0.60547 1.1328-1.2383 1.25-2.4297 0.46484-4.7422 1.418-6.793 2.8008-0.52734 0.37109-1.2305 0.37109-1.7617 0l-10.418-7.293 7.293 10.418c0.37109 0.52734 0.37109 1.2305 0 1.7617-1.3828 2.0508-2.3359 4.3594-2.8008 6.7891-0.11719 0.63672-0.61328 1.1289-1.25 1.2422l-12.605 2.3008 12.555 2.25c0.63281 0.10938 1.1328 0.60547 1.25 1.2383 0.46484 2.4297 1.418 4.7422 2.8008 6.793 0.37109 0.52734 0.37109 1.2305 0 1.7617l-7.293 10.418 10.418-7.293c0.25781-0.18359 0.56641-0.28516 0.88672-0.28125 0.3125-0.007813 0.61719 0.089843 0.875 0.26953 2.0508 1.3828 4.3594 2.3359 6.7891 2.8008 0.63672 0.11719 1.1289 0.61719 1.2422 1.25l2.25 12.5 2.25-12.5c0.10938-0.63281 0.60547-1.1328 1.2383-1.25 2.4297-0.46484 4.7422-1.418 6.793-2.8008 0.52734-0.37109 1.2305-0.37109 1.7578 0l10.418 7.293-7.293-10.418c-0.37109-0.52734-0.37109-1.2305 0-1.7617 1.3828-2.0508 2.3359-4.3594 2.8047-6.7891 0.11719-0.63672 0.61328-1.1289 1.25-1.2422z"/>
<text x="0.0" y="117.5" font-size="5.0" font-weight="bold" font-family="Arbeit Regular, Helvetica, Arial-Unicode, Arial, Sans-serif" fill="#000000">Created by Yunita Bela</text><text x="0.0" y="122.5" font-size="5.0" font-weight="bold" font-family="Arbeit Regular, Helvetica, Arial-Unicode, Arial, Sans-serif" fill="#000000">from Noun Project</text></svg>