<?xml version="1.0" encoding="UTF-8" standalone="no"?>
<!-- Created with Inkscape (http://www.inkscape.org/) -->

<svg
   width="50px"
   height="30px"
   viewBox="0 0 250 250"
   version="1.1"
   id="svg1"
   inkscape:version="1.3.2 (091e20e, 2023-11-25, custom)"
   sodipodi:docname="Sun.svg"
   xmlns:inkscape="http://www.inkscape.org/namespaces/inkscape"
   xmlns:sodipodi="http://sodipodi.sourceforge.net/DTD/sodipodi-0.dtd"
   xmlns="http://www.w3.org/2000/svg"
   xmlns:svg="http://www.w3.org/2000/svg">
  <sodipodi:namedview
     id="namedview1"
     pagecolor="#ffffff"
     bordercolor="#000000"
     borderopacity="0.25"
     inkscape:showpageshadow="2"
     inkscape:pageopacity="0.0"
     inkscape:pagecheckerboard="0"
     inkscape:deskcolor="#d1d1d1"
     inkscape:document-units="mm"
     inkscape:zoom="0.69219276"
     inkscape:cx="396.56583"
     inkscape:cy="226.09309"
     inkscape:window-width="1920"
     inkscape:window-height="991"
     inkscape:window-x="-9"
     inkscape:window-y="-9"
     inkscape:window-maximized="1"
     inkscape:current-layer="layer1" />
  <defs
     id="defs1" />
  <g
     inkscape:label="Layer 1"
     inkscape:groupmode="layer"
     id="layer1">
    <path
       d="m 157.44192,148.50393 c 1.70343,1.76133 1.55374,4.61106 -0.33038,6.3643 -9.09364,8.44766 -21.15244,13.04683 -33.3681,12.74554 -2.54403,-0.0697 -4.44165,-2.14101 -4.2405,-4.62847 0.20142,-2.48744 2.42456,-4.44567 4.96858,-4.37591 9.6909,0.28904 19.26186,-3.36359 26.44067,-10.10403 1.89541,-1.75285 4.81495,-1.76305 6.52995,-8.4e-4 z m 9.8587,-27.61468 c -2.54403,-0.0697 -4.76751,1.88852 -4.96864,4.37596 -0.3442,4.10796 -1.4437,8.14988 -3.23889,11.94744 -0.58645,1.12329 -0.66882,2.41823 -0.2555,3.56887 0.41579,1.13944 1.31065,2.05514 2.46261,2.50411 0.51454,0.19428 1.05967,0.29972 1.61278,0.31489 1.93578,0.03 3.7369,-1.12704 4.53672,-2.88754 2.29435,-4.83275 3.68089,-9.99504 4.09251,-15.22913 0.18883,-2.47654 -1.71067,-4.52535 -4.24324,-4.59479 z m 84.39567,6.82682 c -0.1768,2.1835 -1.94023,4.01911 -4.1699,4.34147 l -60.08723,8.75269 c -1.99854,6.02543 -4.91941,11.75467 -8.66602,16.99902 l 30.51762,49.20735 c 1.14467,1.82496 0.72817,4.26153 -0.98478,5.75985 -1.70266,1.50989 -4.21783,1.6553 -5.94632,0.34446 l -46.64544,-34.93927 c -5.71592,3.0582 -11.83629,5.27046 -18.15934,6.56352 l -15.29792,57.63927 c -0.20142,2.48743 -2.42456,4.44574 -4.96861,4.37598 -2.54405,-0.0697 -4.44166,-2.14109 -4.24054,-4.62855 l -5.81428,-58.21828 c -6.08553,-1.64472 -11.819999,-4.20481 -17.014394,-7.59607 l -52.082422,32.30101 c -1.932241,1.21036 -4.413084,0.92787 -5.864409,-0.66833 -1.463894,-1.58564 -1.485123,-4.03402 -0.05114,-5.78829 l 38.251919,-47.32132 c -2.849377,-5.42514 -4.809547,-11.2883 -5.81544,-17.39615 L 6.2486649,125.44195 c -2.5440353,-0.0697 -4.4416711,-2.14102 -4.2405388,-4.62848 0.2011281,-2.48744 2.4245813,-4.44561 4.9686161,-4.37585 l 60.0781058,-8.6401 c 1.99855,-6.02543 4.919339,-11.754669 8.666014,-16.999018 L 45.203216,41.591182 c -1.144571,-1.82499 -0.728371,-4.26159 0.984912,-5.759876 1.702676,-1.509924 4.217902,-1.655305 5.946311,-0.34441 l 46.645468,34.939266 c 5.715913,-3.058251 11.836243,-5.270484 18.159333,-6.563541 L 132.23706,6.2232996 c 0.20142,-2.4874357 2.42468,-4.4457477 4.9687,-4.3759596 2.54403,0.069709 4.44167,2.1410921 4.24054,4.6285279 l 5.8143,58.2183281 c 6.08554,1.644729 11.82002,4.204815 17.01439,7.596079 L 216.3574,39.989232 c 1.93225,-1.210334 4.41308,-0.927868 5.86441,0.668356 1.46391,1.585649 1.48511,4.034016 0.0509,5.788238 l -38.25193,47.32134 c 2.84941,5.425139 4.8096,11.288334 5.81544,17.396174 l 58.40899,12.00249 c 2.16773,0.44243 3.62748,2.36687 3.45091,4.55047 z m -30.70112,-0.84197 -36.31257,-7.49351 c -1.85088,-0.36635 -3.19723,-1.83604 -3.39502,-3.66898 -0.80384,-7.03854 -3.07395,-13.77882 -6.67119,-19.79967 -0.97088,-1.549495 -0.80706,-3.575549 0.41047,-5.076168 L 198.94612,61.40678 166.54576,81.578845 c -1.65201,1.026495 -3.72412,0.969667 -5.19164,-0.142333 -5.72141,-4.150187 -12.31415,-7.083282 -19.36591,-8.619287 -1.83753,-0.388831 -3.18392,-1.858307 -3.35802,-3.701825 l -3.97025,-36.509409 -9.55568,35.994067 c -0.46932,1.814522 -2.04824,3.215111 -3.9404,3.501659 -7.26848,1.143064 -14.30533,3.702568 -20.67113,7.521255 -1.640441,1.026812 -3.712663,0.969986 -5.191534,-0.142333 L 66.299168,57.62459 85.36388,88.232395 c 0.97089,1.549553 0.807069,3.575557 -0.410455,5.076202 -4.55276,5.79733 -7.899413,12.372323 -9.835471,19.335693 -0.493602,1.82513 -2.070347,3.2033 -3.973113,3.4782 l -37.682153,5.61081 36.474532,7.49785 c 1.839424,0.36568 3.197223,1.83618 3.395182,3.66902 0.803786,7.03852 3.073899,13.77877 6.671034,19.79972 0.970895,1.54945 0.807065,3.57556 -0.410436,5.07609 l -23.919182,29.42897 32.400349,-20.17196 c 0.8024,-0.5084 1.735617,-0.77642 2.678596,-0.73854 0.923005,0.002 1.797887,0.30913 2.515788,0.84716 5.721431,4.15007 12.302569,7.08298 19.354439,8.61886 1.84913,0.38915 3.18302,1.86965 3.36951,3.70217 l 3.71826,36.19927 9.54287,-35.83556 c 0.46932,-1.81456 2.04825,-3.21514 3.94038,-3.50172 7.26848,-1.14301 14.30536,-3.70256 20.67113,-7.52112 1.64045,-1.02678 3.71269,-0.96996 5.18008,0.14207 l 29.00197,21.85592 -19.06465,-30.60779 c -0.97089,-1.54941 -0.80708,-3.57552 0.41033,-5.07607 4.55279,-5.79745 7.89942,-12.37248 9.84695,-19.3355 0.49371,-1.82513 2.07041,-3.20316 3.9731,-3.47818 z"
       id="path1"
       style="fill:#ffffff;fill-opacity:1;stroke-width:2.9172" />
  </g>
</svg>
